<?xml version="1.0" encoding="UTF-8" standalone="no"?>
<!DOCTYPE svg PUBLIC "-//W3C//DTD SVG 1.1//EN" "http://www.w3.org/Graphics/SVG/1.1/DTD/svg11.dtd">
<svg width="100%" height="100%" viewBox="0 0 1749 1241" version="1.1" xmlns="http://www.w3.org/2000/svg" xmlns:xlink="http://www.w3.org/1999/xlink" xml:space="preserve" xmlns:serif="http://www.serif.com/" style="fill-rule:evenodd;clip-rule:evenodd;stroke-linejoin:round;stroke-miterlimit:2;">
    <g transform="matrix(0.704762,0,0,0.709459,811.122,179.642)">
        <text x="385.021px" y="495.313px" style="font-family:'Calibri-Bold', 'Calibri', sans-serif;font-weight:700;font-size:146.825px;fill:rgb(115,14,182);">Flux</text>
    </g>
    <g transform="matrix(0.704762,0,0,0.709459,-590.843,-231.643)">
        <text x="933.641px" y="533.072px" style="font-family:'Calibri', sans-serif;font-size:105.714px;">Composit<tspan x="1341.37px " y="533.072px ">e</tspan></text>
    </g>
    <g transform="matrix(0.704762,0,0,0.709459,-206.837,-55.1531)">
        <text x="773.72px" y="966.193px" style="font-family:'Calibri', sans-serif;font-size:105.714px;">Ob<tspan x="898.739px 940.085px 992.684px 1030.52px 1077.24px 1129.83px " y="966.193px 966.193px 966.193px 966.193px 966.193px 966.193px ">server</tspan></text>
    </g>
    <g transform="matrix(0.704762,0,0,0.709459,7.77468,-127.64)">
        <text x="809.258px" y="726.31px" style="font-family:'Calibri', sans-serif;font-size:105.714px;">Adap<tspan x="1031.68px 1065.96px 1118.56px " y="726.31px 726.31px 726.31px ">ter</tspan></text>
    </g>
    <g transform="matrix(0.704762,0,0,0.709459,116.171,-208.006)">
        <path d="M2020.1,608.335C2020.1,609.333 2020.03,610.116 2019.89,610.684C2019.76,611.252 2019.54,611.673 2019.25,611.949C2018.96,612.224 2018.55,612.482 2018.04,612.723C2017.52,612.964 2016.91,613.17 2016.2,613.342C2015.5,613.514 2014.74,613.652 2013.93,613.755C2013.12,613.859 2012.34,613.91 2011.58,613.91C2009.14,613.91 2007.06,613.592 2005.34,612.955C2003.62,612.319 2002.21,611.355 2001.13,610.065C2000.05,608.774 1999.25,607.14 1998.73,605.161C1998.21,603.182 1997.96,600.851 1997.96,598.167L1997.96,571.015L1974.88,571.015L1974.88,596.928C1974.88,600.128 1975.36,602.546 1976.3,604.18C1977.25,605.815 1978.94,606.632 1981.39,606.632C1982.18,606.632 1982.88,606.555 1983.5,606.4C1984.12,606.245 1984.67,606.081 1985.15,605.909C1985.64,605.737 1986.05,605.574 1986.39,605.419C1986.74,605.264 1987.05,605.187 1987.32,605.187C1987.49,605.187 1987.66,605.23 1987.81,605.316C1987.97,605.402 1988.09,605.565 1988.17,605.806C1988.26,606.047 1988.34,606.374 1988.41,606.787C1988.48,607.2 1988.51,607.716 1988.51,608.335C1988.51,608.92 1988.49,609.385 1988.46,609.729C1988.42,610.073 1988.38,610.392 1988.33,610.684C1988.28,610.977 1988.19,611.235 1988.07,611.458C1987.95,611.682 1987.76,611.906 1987.5,612.129C1987.25,612.353 1986.86,612.577 1986.34,612.8C1985.83,613.024 1985.22,613.213 1984.54,613.368C1983.85,613.523 1983.11,613.652 1982.32,613.755C1981.52,613.859 1980.73,613.91 1979.94,613.91C1977.53,613.91 1975.47,613.592 1973.75,612.955C1972.03,612.319 1970.62,611.355 1969.51,610.065C1968.41,608.774 1967.61,607.14 1967.11,605.161C1966.62,603.182 1966.37,600.851 1966.37,598.167L1966.37,571.015L1959.86,571.015C1959.35,571.015 1958.93,570.74 1958.62,570.189C1958.31,569.639 1958.16,568.744 1958.16,567.505C1958.16,566.851 1958.2,566.301 1958.29,565.854C1958.37,565.406 1958.49,565.036 1958.62,564.744C1958.76,564.451 1958.94,564.245 1959.16,564.124C1959.39,564.004 1959.64,563.944 1959.91,563.944L1966.37,563.944L1966.37,552.897C1966.37,552.656 1966.42,552.433 1966.55,552.226C1966.67,552.02 1966.89,551.839 1967.22,551.684C1967.54,551.529 1967.98,551.418 1968.53,551.349C1969.08,551.28 1969.77,551.246 1970.6,551.246C1971.46,551.246 1972.16,551.28 1972.71,551.349C1973.27,551.418 1973.69,551.529 1974.01,551.684C1974.31,551.839 1974.54,552.02 1974.68,552.226C1974.81,552.433 1974.88,552.656 1974.88,552.897L1974.88,563.944L1997.96,563.944L1997.96,550.678C1997.96,550.402 1998.02,550.162 1998.16,549.955C1998.3,549.749 1998.53,549.585 1998.86,549.465C1999.19,549.344 1999.63,549.241 2000.17,549.155C2000.73,549.069 2001.41,549.026 2002.24,549.026C2003.07,549.026 2003.75,549.069 2004.31,549.155C2004.86,549.241 2005.29,549.344 2005.62,549.465C2005.95,549.585 2006.18,549.749 2006.32,549.955C2006.46,550.162 2006.52,550.402 2006.52,550.678L2006.52,563.944L2018.4,563.944C2018.67,563.944 2018.91,564.004 2019.12,564.124C2019.33,564.245 2019.51,564.451 2019.66,564.744C2019.82,565.036 2019.93,565.406 2020,565.854C2020.07,566.301 2020.1,566.851 2020.1,567.505C2020.1,568.744 2019.94,569.639 2019.63,570.189C2019.33,570.74 2018.93,571.015 2018.45,571.015L2006.52,571.015L2006.52,596.928C2006.52,600.128 2006.99,602.546 2007.92,604.18C2008.85,605.815 2010.53,606.632 2012.98,606.632C2013.73,606.632 2014.43,606.555 2015.07,606.4C2015.7,606.245 2016.26,606.081 2016.75,605.909C2017.23,605.737 2017.65,605.574 2018.01,605.419C2018.37,605.264 2018.67,605.187 2018.91,605.187C2019.12,605.187 2019.29,605.23 2019.43,605.316C2019.57,605.402 2019.68,605.565 2019.76,605.806C2019.85,606.047 2019.93,606.374 2020,606.787C2020.07,607.2 2020.1,607.716 2020.1,608.335Z"/>
        <text x="1522.24px" y="613.033px" style="font-family:'Calibri', sans-serif;font-size:105.714px;">Ser<tspan x="1661.25px 1709px " y="613.033px 613.033px ">vi</tspan>ce P<tspan x="1906.8px 2022.37px " y="613.033px 613.033px ">ae</tspan>rn</text>
    </g>
    <g transform="matrix(0.704762,0,0,0.709459,-214.383,15.758)">
        <text x="688.923px" y="1370.44px" style="font-family:'Calibri', sans-serif;font-size:105.714px;">D<tspan x="752.413px 812.394px " y="1370.44px 1370.44px ">AO</tspan></text>
        <text x="357.224px" y="1452.66px" style="font-family:'Calibri', sans-serif;font-size:105.714px;">(Da<tspan x="503.974px 538.094px 588.732px " y="1452.66px 1452.66px 1452.66px ">ta </tspan>Access Object)</text>
    </g>
    <g transform="matrix(0.704762,0,0,0.709459,318.938,162.308)">
        <text x="1346.77px" y="1403.76px" style="font-family:'Calibri', sans-serif;font-size:105.714px;">Stub Sk<tspan x="1658.96px 1711.56px 1735.82px 1787.85px 1822.23px 1877.98px " y="1403.76px 1403.76px 1403.76px 1403.76px 1403.76px 1403.76px ">eleton</tspan></text>
    </g>
    <g transform="matrix(0.704762,0,0,0.709459,-550.102,-91.3966)">
        <text x="1915.38px" y="1292.7px" style="font-family:'Calibri', sans-serif;font-size:105.714px;">La<tspan x="2008.5px 2055.06px 2107.66px 2143.12px 2195.72px " y="1292.7px 1292.7px 1292.7px 1292.7px 1292.7px ">yered</tspan> Ar<tspan x="2371.64px 2416.34px " y="1292.7px 1292.7px ">ch</tspan>it<tspan x="2530.41px 2583.01px " y="1292.7px 1292.7px ">ec</tspan>tur<tspan x="2754.13px " y="1292.7px ">e</tspan></text>
    </g>
</svg>
